<!-- Generated by IcoMoon.io -->
<svg version="1.1" xmlns="http://www.w3.org/2000/svg" width="49" height="32" viewBox="0 0 49 32">
<title>car-2</title>
<path d="M35.644 0.444h-31.111c-2.444 0-4.444 1.978-4.444 4.444v20h4.444c0 3.667 2.978 6.667 6.667 6.667s6.667-3 6.667-6.667h12.222c0 3.667 2.978 6.667 6.667 6.667s6.667-3 6.667-6.667h5.556v-11.111l-13.333-13.333zM4.533 13.778v-8.889h8.889v8.889h-8.889zM11.2 28.222c-1.844 0-3.333-1.489-3.333-3.333s1.489-3.333 3.333-3.333 3.333 1.489 3.333 3.333c0 1.844-1.489 3.333-3.333 3.333zM26.756 13.778h-8.889v-8.889h8.889v8.889zM36.756 28.222c-1.844 0-3.333-1.489-3.333-3.333s1.489-3.333 3.333-3.333c1.844 0 3.333 1.489 3.333 3.333s-1.489 3.333-3.333 3.333zM31.2 13.778v-8.889h2.222l8.889 8.889h-11.111z"></path>
</svg>
