<!-- Generated by IcoMoon.io -->
<svg version="1.1" xmlns="http://www.w3.org/2000/svg" width="43" height="32" viewBox="0 0 43 32">
<title>car-1</title>
<path d="M37.333 8.157h-5.882v-7.843h-27.451c-2.157 0-3.922 1.765-3.922 3.922v21.569h3.922c0 3.255 2.627 5.882 5.882 5.882s5.882-2.627 5.882-5.882h11.765c0 3.255 2.627 5.882 5.882 5.882s5.882-2.627 5.882-5.882h3.922v-9.804l-5.882-7.843zM9.882 28.745c-1.627 0-2.941-1.314-2.941-2.941s1.314-2.941 2.941-2.941c1.627 0 2.941 1.314 2.941 2.941s-1.314 2.941-2.941 2.941zM36.353 11.098l3.843 4.902h-8.745v-4.902h4.902zM33.412 28.745c-1.627 0-2.941-1.314-2.941-2.941s1.314-2.941 2.941-2.941c1.627 0 2.941 1.314 2.941 2.941s-1.314 2.941-2.941 2.941z"></path>
</svg>
