<svg width="92" height="68" viewBox="0 0 92 68" fill="none" xmlns="http://www.w3.org/2000/svg">
<path d="M79.3334 17.3334H66.8334V0.666748H8.50008C3.91675 0.666748 0.166748 4.41675 0.166748 9.00008V54.8334H8.50008C8.50008 61.75 14.0834 67.3334 21.0001 67.3334C27.9168 67.3334 33.5001 61.75 33.5001 54.8334H58.5001C58.5001 61.75 64.0834 67.3334 71.0001 67.3334C77.9168 67.3334 83.5001 61.75 83.5001 54.8334H91.8335V34.0001L79.3334 17.3334ZM21.0001 61.0834C17.5418 61.0834 14.7501 58.2917 14.7501 54.8334C14.7501 51.3751 17.5418 48.5834 21.0001 48.5834C24.4584 48.5834 27.2501 51.3751 27.2501 54.8334C27.2501 58.2917 24.4584 61.0834 21.0001 61.0834ZM77.2501 23.5834L85.4168 34.0001H66.8334V23.5834H77.2501ZM71.0001 61.0834C67.5418 61.0834 64.7501 58.2917 64.7501 54.8334C64.7501 51.3751 67.5418 48.5834 71.0001 48.5834C74.4584 48.5834 77.2501 51.3751 77.2501 54.8334C77.2501 58.2917 74.4584 61.0834 71.0001 61.0834Z" fill="#ADB5BD"/>
</svg>
