<svg width="92" height="60" viewBox="0 0 92 60" fill="none" xmlns="http://www.w3.org/2000/svg">
<path d="M66.8334 0.833252H8.50008C3.91675 0.833252 0.166748 4.54159 0.166748 9.16659V46.6666H8.50008C8.50008 53.5416 14.0834 59.1666 21.0001 59.1666C27.9168 59.1666 33.5001 53.5416 33.5001 46.6666H56.4168C56.4168 53.5416 62.0001 59.1666 68.9168 59.1666C75.8334 59.1666 81.4168 53.5416 81.4168 46.6666H91.8335V25.8333L66.8334 0.833252ZM8.50008 25.8333V9.16659H25.1668V25.8333H8.50008ZM21.0001 52.9166C17.5418 52.9166 14.7501 50.125 14.7501 46.6666C14.7501 43.2083 17.5418 40.4166 21.0001 40.4166C24.4584 40.4166 27.2501 43.2083 27.2501 46.6666C27.2501 50.125 24.4584 52.9166 21.0001 52.9166ZM50.1668 25.8333H33.5001V9.16659H50.1668V25.8333ZM68.9168 52.9166C65.4584 52.9166 62.6668 50.125 62.6668 46.6666C62.6668 43.2083 65.4584 40.4166 68.9168 40.4166C72.3751 40.4166 75.1668 43.2083 75.1668 46.6666C75.1668 50.125 72.3751 52.9166 68.9168 52.9166ZM58.5001 25.8333V9.16659H62.6668L79.3334 25.8333H58.5001Z" fill="#ADB5BD"/>
</svg>
