<!-- Generated by IcoMoon.io -->
<svg version="1.1" xmlns="http://www.w3.org/2000/svg" width="32" height="32" viewBox="0 0 32 32">
<title>cart</title>
<path d="M23.28 17.6c1.2 0 2.256-0.656 2.8-1.648l5.728-10.384c0.592-1.056-0.176-2.368-1.392-2.368h-23.68l-1.504-3.2h-5.232v3.2h3.2l5.76 12.144-2.16 3.904c-1.168 2.144 0.368 4.752 2.8 4.752h19.2v-3.2h-19.2l1.76-3.2h11.92zM8.256 6.4h19.44l-4.416 8h-11.232l-3.792-8zM9.6 25.6c-1.76 0-3.184 1.44-3.184 3.2s1.424 3.2 3.184 3.2c1.76 0 3.2-1.44 3.2-3.2s-1.44-3.2-3.2-3.2zM25.6 25.6c-1.76 0-3.184 1.44-3.184 3.2s1.424 3.2 3.184 3.2c1.76 0 3.2-1.44 3.2-3.2s-1.44-3.2-3.2-3.2z"></path>
</svg>
