<!-- Generated by IcoMoon.io -->
<svg version="1.1" xmlns="http://www.w3.org/2000/svg" width="32" height="32" viewBox="0 0 32 32">
<title>heart-o</title>
<path d="M29.714 10.642c0-5.018-3.393-6.072-6.25-6.072-2.661 0-5.661 2.875-6.59 3.982-0.429 0.518-1.321 0.518-1.75 0-0.928-1.107-3.928-3.982-6.59-3.982-2.857 0-6.25 1.054-6.25 6.072 0 3.267 3.304 6.304 3.339 6.339l10.375 10 10.358-9.982c0.054-0.054 3.358-3.089 3.358-6.358zM32 10.642c0 4.286-3.928 7.875-4.089 8.035l-11.125 10.714c-0.214 0.214-0.501 0.321-0.786 0.321s-0.571-0.107-0.786-0.321l-11.143-10.75c-0.143-0.125-4.072-3.714-4.072-8 0-5.232 3.197-8.358 8.536-8.358 3.125 0 6.054 2.464 7.464 3.857 1.41-1.393 4.339-3.857 7.464-3.857 5.339 0 8.536 3.125 8.536 8.358z"></path>
</svg>
