<svg width="24" height="24" viewBox="0 0 24 24" fill="none" xmlns="http://www.w3.org/2000/svg">
<path d="M24 0H0V24H24V0Z" fill="#3B5998"/>
<path d="M5 3C3.89844 3 3 3.89844 3 5V19C3 20.1016 3.89844 21 5 21H19C20.1016 21 21 20.1016 21 19V5C21 3.89844 20.1016 3 19 3H5ZM5 5H19V19H14.4141V15.0352H16.7773L17.1289 12.3086H14.4297V10.5742C14.4297 9.78516 14.6484 9.25391 15.7773 9.25391H17.207V6.82031C16.5117 6.75 15.8125 6.71484 15.1133 6.71875C13.043 6.71875 11.6211 7.98438 11.6211 10.3086V12.3125H9.27734V15.0391H11.6211V19H5V5Z" fill="white"/>
</svg>
