<svg width="32" height="32" viewBox="0 0 32 32" fill="none" xmlns="http://www.w3.org/2000/svg">
<path d="M22.6781 27.9933L9.34474 28.006C6.41141 28.0086 4.00941 25.6113 4.00608 22.678L3.99341 9.34462C3.99074 6.41129 6.38808 4.00929 9.32141 4.00596L22.6547 3.99329C25.5881 3.99062 27.9901 6.38796 27.9934 9.32129L28.0061 22.6546C28.0094 25.5886 25.6114 27.9906 22.6781 27.9933Z" fill="url(#paint0_radial_127_32)"/>
<path d="M22.6781 27.9933L9.34474 28.006C6.41141 28.0086 4.00941 25.6113 4.00608 22.678L3.99341 9.34462C3.99074 6.41129 6.38808 4.00929 9.32141 4.00596L22.6547 3.99329C25.5881 3.99062 27.9901 6.38796 27.9934 9.32129L28.0061 22.6546C28.0094 25.5886 25.6114 27.9906 22.6781 27.9933Z" fill="url(#paint1_radial_127_32)"/>
<path d="M15.9999 20.6667C13.4273 20.6667 11.3333 18.5734 11.3333 16C11.3333 13.4267 13.4273 11.3334 15.9999 11.3334C18.5726 11.3334 20.6666 13.4267 20.6666 16C20.6666 18.5734 18.5726 20.6667 15.9999 20.6667ZM15.9999 12.6667C14.1619 12.6667 12.6666 14.162 12.6666 16C12.6666 17.838 14.1619 19.3334 15.9999 19.3334C17.8379 19.3334 19.3333 17.838 19.3333 16C19.3333 14.162 17.8379 12.6667 15.9999 12.6667Z" fill="white"/>
<path d="M21 12C21.5523 12 22 11.5523 22 11C22 10.4477 21.5523 10 21 10C20.4477 10 20 10.4477 20 11C20 11.5523 20.4477 12 21 12Z" fill="white"/>
<path d="M19.9999 24.6667H11.9999C9.42725 24.6667 7.33325 22.5734 7.33325 20V12C7.33325 9.42671 9.42725 7.33337 11.9999 7.33337H19.9999C22.5726 7.33337 24.6666 9.42671 24.6666 12V20C24.6666 22.5734 22.5726 24.6667 19.9999 24.6667ZM11.9999 8.66671C10.1619 8.66671 8.66659 10.162 8.66659 12V20C8.66659 21.838 10.1619 23.3334 11.9999 23.3334H19.9999C21.8379 23.3334 23.3333 21.838 23.3333 20V12C23.3333 10.162 21.8379 8.66671 19.9999 8.66671H11.9999Z" fill="white"/>
<defs>
<radialGradient id="paint0_radial_127_32" cx="0" cy="0" r="1" gradientUnits="userSpaceOnUse" gradientTransform="translate(12.9201 28.0233) scale(29.9327)">
<stop stop-color="#FFDD55"/>
<stop offset="0.328" stop-color="#FF543F"/>
<stop offset="0.348" stop-color="#FC5245"/>
<stop offset="0.504" stop-color="#E64771"/>
<stop offset="0.643" stop-color="#D53E91"/>
<stop offset="0.761" stop-color="#CC39A4"/>
<stop offset="0.841" stop-color="#C837AB"/>
</radialGradient>
<radialGradient id="paint1_radial_127_32" cx="0" cy="0" r="1" gradientUnits="userSpaceOnUse" gradientTransform="translate(7.85741 3.69349) scale(19.8753 13.2429)">
<stop stop-color="#4168C9"/>
<stop offset="0.999" stop-color="#4168C9" stop-opacity="0"/>
</radialGradient>
</defs>
</svg>
