<svg width="29" height="29" viewBox="0 0 29 29" fill="none" xmlns="http://www.w3.org/2000/svg">
<path d="M23.7801 2.31995H5.22007C3.62101 2.31995 2.32007 3.62089 2.32007 5.21995V23.7799C2.32007 25.379 3.62101 26.6799 5.22007 26.6799H23.7801C25.3791 26.6799 26.6801 25.379 26.6801 23.7799V5.21995C26.6801 3.62089 25.3791 2.31995 23.7801 2.31995ZM21.4636 12.9473C21.3319 12.9595 21.1985 12.9676 21.0634 12.9676C19.542 12.9676 18.2051 12.1852 17.4273 11.0025C17.4273 14.105 17.4273 17.6348 17.4273 17.694C17.4273 20.4252 15.2129 22.6397 12.4817 22.6397C9.75045 22.6397 7.53601 20.4252 7.53601 17.694C7.53601 14.9628 9.75045 12.7483 12.4817 12.7483C12.5849 12.7483 12.6858 12.7576 12.7873 12.764V15.2012C12.6858 15.189 12.5861 15.1704 12.4817 15.1704C11.0873 15.1704 9.95751 16.3003 9.95751 17.6946C9.95751 19.0889 11.0873 20.2187 12.4817 20.2187C13.876 20.2187 15.1073 19.1202 15.1073 17.7259C15.1073 17.6708 15.1317 6.36139 15.1317 6.36139H17.461C17.6802 8.44417 19.3616 10.0879 21.4636 10.2387V12.9473Z" fill="#434343"/>
</svg>
