<svg width="24" height="24" viewBox="0 0 24 24" fill="none" xmlns="http://www.w3.org/2000/svg">
<path d="M24 0H0V24H24V0Z" fill="#03A9F4"/>
<path d="M21 6.21484C20.3379 6.50781 19.627 6.70312 18.877 6.79492C19.6387 6.3418 20.2266 5.61914 20.502 4.76562C19.7871 5.18555 18.9961 5.49219 18.1562 5.6543C17.4844 4.94141 16.5254 4.5 15.4629 4.5C13.4238 4.5 11.7695 6.13867 11.7695 8.16016C11.7695 8.44531 11.8027 8.72461 11.8652 8.99414C8.79688 8.8418 6.07422 7.38281 4.25391 5.16797C3.93359 5.70898 3.75391 6.3418 3.75391 7.01172C3.75391 8.28125 4.4043 9.40039 5.39648 10.0586C4.79102 10.041 4.2207 9.87109 3.72266 9.60156C3.72266 9.61328 3.72266 9.62891 3.72266 9.64453C3.72266 11.4199 4.99609 12.8984 6.68359 13.2363C6.375 13.3203 6.04883 13.3672 5.71289 13.3672C5.47461 13.3672 5.24219 13.3398 5.01758 13.2988C5.48633 14.75 6.84961 15.8105 8.4668 15.8418C7.20117 16.8223 5.60937 17.4102 3.87891 17.4102C3.58008 17.4102 3.28711 17.3926 2.99805 17.3574C4.63477 18.3926 6.57617 19 8.66016 19C15.4531 19 19.1699 13.4219 19.1699 8.58203C19.1699 8.42383 19.1641 8.26562 19.1562 8.11133C19.8809 7.59766 20.5059 6.95313 21 6.21484Z" fill="white"/>
</svg>
