<svg width="92" height="68" viewBox="0 0 92 68" fill="none" xmlns="http://www.w3.org/2000/svg">
<path d="M79.1667 17.5002H66.6667V0.833496H8.33334C3.75 0.833496 0 4.58349 0 9.16682V55.0001H8.33334C8.33334 61.9168 13.9167 67.5001 20.8333 67.5001C27.75 67.5001 33.3333 61.9168 33.3333 55.0001H58.3334C58.3334 61.9168 63.9167 67.5001 70.8334 67.5001C77.75 67.5001 83.3334 61.9168 83.3334 55.0001H91.6667V34.1668L79.1667 17.5002ZM20.8333 61.2501C17.375 61.2501 14.5833 58.4585 14.5833 55.0001C14.5833 51.5418 17.375 48.7501 20.8333 48.7501C24.2917 48.7501 27.0833 51.5418 27.0833 55.0001C27.0833 58.4585 24.2917 61.2501 20.8333 61.2501ZM77.0834 23.7501L85.25 34.1668H66.6667V23.7501H77.0834ZM70.8334 61.2501C67.375 61.2501 64.5834 58.4585 64.5834 55.0001C64.5834 51.5418 67.375 48.7501 70.8334 48.7501C74.2917 48.7501 77.0834 51.5418 77.0834 55.0001C77.0834 58.4585 74.2917 61.2501 70.8334 61.2501Z" fill="#7954A3" fill-opacity="0.5"/>
</svg>
