<svg width="92" height="59" viewBox="0 0 92 59" fill="none" xmlns="http://www.w3.org/2000/svg">
<path d="M66.6667 0H8.33334C3.75 0 0 3.70834 0 8.33334V45.8334H8.33334C8.33334 52.7084 13.9167 58.3334 20.8333 58.3334C27.75 58.3334 33.3333 52.7084 33.3333 45.8334H56.25C56.25 52.7084 61.8334 58.3334 68.75 58.3334C75.6667 58.3334 81.25 52.7084 81.25 45.8334H91.6667V25L66.6667 0ZM8.33334 25V8.33334H25V25H8.33334ZM20.8333 52.0834C17.375 52.0834 14.5833 49.2917 14.5833 45.8334C14.5833 42.375 17.375 39.5834 20.8333 39.5834C24.2917 39.5834 27.0833 42.375 27.0833 45.8334C27.0833 49.2917 24.2917 52.0834 20.8333 52.0834ZM50 25H33.3333V8.33334H50V25ZM68.75 52.0834C65.2917 52.0834 62.5 49.2917 62.5 45.8334C62.5 42.375 65.2917 39.5834 68.75 39.5834C72.2084 39.5834 75 42.375 75 45.8334C75 49.2917 72.2084 52.0834 68.75 52.0834ZM58.3334 25V8.33334H62.5L79.1667 25H58.3334Z" fill="#7954A3" fill-opacity="0.5"/>
</svg>
